HIERARCHY
ROOT joint_Root
{
	OFFSET 0.0 0.0 0.0
	CHANNELS 6 Xposition Yposition Zposition Zrotation Xrotation Yrotation 
	JOINT Hips
	{
		OFFSET -17.1583 93.1646 452.98
		CHANNELS 6 Xposition Yposition Zposition Zrotation Xrotation Yrotation 
		JOINT Spine
		{
			OFFSET 15.7357 0.0 0.0
			CHANNELS 6 Xposition Yposition Zposition Zrotation Xrotation Yrotation 
			JOINT Chest
			{
				OFFSET 8.98455 -0.406207 0.0
				CHANNELS 6 Xposition Yposition Zposition Zrotation Xrotation Yrotation 
				JOINT Neck
				{
					OFFSET 16.3773 0.0 0.0
					CHANNELS 6 Xposition Yposition Zposition Zrotation Xrotation Yrotation 
					JOINT Head
					{
						OFFSET 6.45672 0.0 0.0
						CHANNELS 6 Xposition Yposition Zposition Zrotation Xrotation Yrotation 
						End Site
						{
							OFFSET 0.0 0.0 0.0
						}
					}
				}
				JOINT Shoulder_L
				{
					OFFSET 12.9942 -0.242716 4.98039
					CHANNELS 6 Xposition Yposition Zposition Zrotation Xrotation Yrotation 
					JOINT UpperArm_L
					{
						OFFSET 5.34809 0.0 0.0
						CHANNELS 6 Xposition Yposition Zposition Zrotation Xrotation Yrotation 
						JOINT LowerArm_L
						{
							OFFSET 24.3286 1.87007e-05 0.0
							CHANNELS 6 Xposition Yposition Zposition Zrotation Xrotation Yrotation 
							JOINT Hand_L
							{
								OFFSET 22.2916 0.0 0.0
								CHANNELS 6 Xposition Yposition Zposition Zrotation Xrotation Yrotation 
								End Site
								{
									OFFSET 0.0 0.0 0.0
								}
							}
						}
					}
				}
				JOINT Shoulder_R
				{
					OFFSET 12.9945 -0.242716 -4.98039
					CHANNELS 6 Xposition Yposition Zposition Zrotation Xrotation Yrotation 
					JOINT UpperArm_R
					{
						OFFSET -5.34813 0.0 0.0
						CHANNELS 6 Xposition Yposition Zposition Zrotation Xrotation Yrotation 
						JOINT LowerArm_R
						{
							OFFSET -24.3289 0.000322201 0.0
							CHANNELS 6 Xposition Yposition Zposition Zrotation Xrotation Yrotation 
							JOINT Hand_R
							{
								OFFSET -22.2915 -0.000108084 0.0
								CHANNELS 6 Xposition Yposition Zposition Zrotation Xrotation Yrotation 
								End Site
								{
									OFFSET 0.0 0.0 0.0
								}
							}
						}
					}
				}
			}
		}
		JOINT UpperLeg_L
		{
			OFFSET -2.19248 -6.46944 0.0
			CHANNELS 6 Xposition Yposition Zposition Zrotation Xrotation Yrotation 
			JOINT LowerLeg_L
			{
				OFFSET 39.0811 0.0 -1.23785e-05
				CHANNELS 6 Xposition Yposition Zposition Zrotation Xrotation Yrotation 
				JOINT Foot_L
				{
					OFFSET 40.9854 0.0 -1.26872e-05
					CHANNELS 6 Xposition Yposition Zposition Zrotation Xrotation Yrotation 
					JOINT Toes_L
					{
						OFFSET 11.7543 0.0 0.0
						CHANNELS 6 Xposition Yposition Zposition Zrotation Xrotation Yrotation 
						End Site
						{
							OFFSET 0.0 0.0 0.0
						}
					}
				}
			}
		}
		JOINT UpperLeg_R
		{
			OFFSET -2.19251 6.46944 0.0
			CHANNELS 6 Xposition Yposition Zposition Zrotation Xrotation Yrotation 
			JOINT LowerLeg_R
			{
				OFFSET -39.0811 -0.00228153 -0.0401928
				CHANNELS 6 Xposition Yposition Zposition Zrotation Xrotation Yrotation 
				JOINT Foot_R
				{
					OFFSET -40.9854 0.0 0.0
					CHANNELS 6 Xposition Yposition Zposition Zrotation Xrotation Yrotation 
					JOINT Toes_R
					{
						OFFSET -11.7543 0.0 0.0
						CHANNELS 6 Xposition Yposition Zposition Zrotation Xrotation Yrotation 
						End Site
						{
							OFFSET 0.0 0.0 0.0
						}
					}
				}
			}
		}
	}
}
MOTION
Frames:	5
Frame Time:	0.0333333
0.000000 0.000000 0.000000 0.000000 0.000000 -0.000000 -3.334340 91.820500 -1.011060 82.796700 -1.148090 4.574350 15.735700 0.000005 -0.000001 58.543800 86.265600 -55.184200 8.984550 -0.406207 -0.000000 -1.264510 -4.161260 6.673540 16.377300 -0.000001 -0.000001 8.513460 0.832400 5.922500 6.456720 -0.000001 -0.000000 1.116200 2.601700 10.381800 12.994200 -0.242716 4.980390 -92.048500 6.265060 -71.853000 5.348090 -0.000007 -0.000001 -75.509800 30.311600 1.851770 24.328600 0.000019 0.000005 12.863200 28.272700 -25.738600 22.291600 -0.000001 0.000005 -4.138130 5.032100 6.629160 12.994500 -0.242716 -4.980390 88.172000 4.919420 -69.585800 -5.348130 -0.000001 -0.000004 -72.101600 -3.261410 -16.229000 -24.328900 0.000322 -0.000009 15.168600 -17.785200 -138.408000 -22.291500 -0.000108 -0.000004 52.344100 5.624590 -12.941600 -2.192480 -6.469440 -0.000000 -170.695000 5.011290 -3.966390 39.081100 -0.000007 -0.000012 0.427434 -0.752685 29.592500 40.985400 -0.000006 -0.000013 0.361590 6.764980 -77.274000 11.754300 -0.000000 0.000003 0.000768 0.153498 -10.351600 -2.192510 6.469440 -0.000001 -169.052000 5.431520 -176.495000 -39.081100 -0.002282 -0.040193 0.123564 -0.421577 15.918500 -40.985400 0.000008 0.000006 5.214600 1.273500 -70.921800 -11.754300 -0.000006 -0.000006 -0.008803 0.262129 -5.926130
0.000000 0.000000 0.000000 0.000000 0.000000 -0.000000 -3.357960 91.818700 -1.005290 82.791800 -1.151590 4.523580 15.735700 0.000005 -0.000001 58.650400 86.279500 -55.302400 8.984550 -0.406207 -0.000000 -1.282230 -4.134590 6.649720 16.377300 -0.000001 -0.000001 8.528940 0.780116 5.916270 6.456720 -0.000001 -0.000000 1.114410 2.506300 10.374600 12.994200 -0.242716 4.980390 -92.053000 6.270590 -71.830700 5.348090 -0.000007 -0.000001 -75.490000 30.202300 1.863470 24.328600 0.000019 0.000005 12.895600 28.419400 -25.690500 22.291600 -0.000001 0.000005 -4.094640 5.031570 6.640600 12.994500 -0.242716 -4.980390 88.167000 4.933690 -69.589100 -5.348130 -0.000001 -0.000004 -72.085000 -3.297870 -16.192900 -24.328900 0.000322 -0.000009 15.066500 -17.604000 -138.327000 -22.291500 -0.000108 -0.000004 52.326800 5.624670 -12.947400 -2.192480 -6.469440 -0.000000 -170.670000 5.034040 -4.017470 39.081100 -0.000007 -0.000012 0.426998 -0.751816 29.595700 40.985400 -0.000006 -0.000013 0.334078 6.740720 -77.266700 11.754300 -0.000000 0.000003 0.000743 0.154011 -10.330800 -2.192510 6.469440 -0.000001 -169.027000 5.476940 -176.531000 -39.081100 -0.002282 -0.040193 0.122503 -0.418826 15.883500 -40.985400 0.000008 0.000006 5.239620 1.281150 -70.846000 -11.754300 -0.000006 -0.000006 -0.008210 0.257402 -6.119280
0.000000 0.000000 0.000000 0.000000 0.000000 -0.000000 -3.378660 91.817500 -0.993906 82.814500 -1.139430 4.559290 15.735700 0.000005 -0.000001 58.871900 86.271200 -55.538600 8.984550 -0.406207 -0.000000 -1.254330 -4.116520 6.621490 16.377300 -0.000001 -0.000001 8.587420 0.762627 5.892750 6.456720 -0.000001 -0.000000 1.031360 2.404330 10.317200 12.994200 -0.242716 4.980390 -92.056900 6.268580 -71.792600 5.348090 -0.000007 -0.000001 -75.458300 30.258200 1.894440 24.328600 0.000019 0.000005 12.927400 28.483100 -25.701700 22.291600 -0.000001 0.000005 -4.101510 5.031060 6.651670 12.994500 -0.242716 -4.980390 88.169500 4.920640 -69.565400 -5.348130 -0.000001 -0.000004 -72.099400 -3.289690 -16.182400 -24.328900 0.000322 -0.000009 14.981200 -17.477700 -138.298000 -22.291500 -0.000108 -0.000004 52.257600 5.622420 -12.788000 -2.192480 -6.469440 -0.000000 -170.687000 5.045610 -3.962610 39.081100 -0.000007 -0.000012 0.426230 -0.751099 29.574900 40.985400 -0.000006 -0.000013 0.325418 6.743410 -77.269600 11.754300 -0.000000 0.000003 0.000784 0.153186 -10.364200 -2.192510 6.469440 -0.000001 -169.055000 5.530790 -176.487000 -39.081100 -0.002282 -0.040193 0.122706 -0.419197 15.895900 -40.985400 0.000008 0.000006 5.250660 1.316470 -70.895300 -11.754300 -0.000006 -0.000006 -0.008443 0.259276 -6.042690
0.000000 0.000000 0.000000 0.000000 0.000000 -0.000000 -3.396080 91.813300 -0.996440 82.822300 -1.077690 4.543520 15.735700 0.000005 -0.000001 58.854800 86.269100 -55.529600 8.984550 -0.406207 -0.000000 -1.252110 -4.119900 6.605340 16.377300 -0.000001 -0.000001 8.615130 0.718506 5.859730 6.456720 -0.000001 -0.000000 0.990910 2.324580 10.293100 12.994200 -0.242716 4.980390 -92.062900 6.263610 -71.729400 5.348090 -0.000007 -0.000001 -75.418000 30.169200 1.839650 24.328600 0.000019 0.000005 12.939800 28.568900 -25.662200 22.291600 -0.000001 0.000005 -4.127180 5.033120 6.607070 12.994500 -0.242716 -4.980390 88.171800 4.917000 -69.574700 -5.348130 -0.000001 -0.000004 -72.128700 -3.357940 -16.148700 -24.328900 0.000322 -0.000009 14.888900 -17.376100 -138.322000 -22.291500 -0.000108 -0.000004 52.234600 5.623410 -12.857800 -2.192480 -6.469440 -0.000000 -170.680000 5.068860 -4.014830 39.081100 -0.000007 -0.000012 0.424622 -0.747516 29.599600 40.985400 -0.000006 -0.000013 0.312665 6.746010 -77.257600 11.754300 -0.000000 0.000003 0.000794 0.152984 -10.372500 -2.192510 6.469440 -0.000001 -169.058000 5.610180 -176.529000 -39.081100 -0.002282 -0.040193 0.123423 -0.420855 15.926700 -40.985400 0.000008 0.000006 5.272160 1.360010 -70.898100 -11.754300 -0.000006 -0.000006 -0.008321 0.258299 -6.082630
0.000000 0.000000 0.000000 0.000000 0.000000 -0.000000 -3.425480 91.816600 -0.995978 82.811400 -0.983467 4.502840 15.735700 0.000005 -0.000001 58.829700 86.276500 -55.500800 8.984550 -0.406207 -0.000000 -1.266420 -4.115760 6.612430 16.377300 -0.000001 -0.000001 8.657310 0.704072 5.805730 6.456720 -0.000001 -0.000000 0.936930 2.193890 10.277500 12.994200 -0.242716 4.980390 -92.078300 6.306510 -71.719000 5.348090 -0.000007 -0.000001 -75.300400 30.211700 1.783120 24.328600 0.000019 0.000005 12.924500 28.486400 -25.694100 22.291600 -0.000001 0.000005 -4.131820 5.030840 6.656590 12.994500 -0.242716 -4.980390 88.174700 4.902620 -69.550300 -5.348130 -0.000001 -0.000004 -72.159500 -3.331260 -16.138900 -24.328900 0.000322 -0.000009 14.653900 -17.160800 -138.451000 -22.291500 -0.000108 -0.000004 52.290200 5.623780 -12.883800 -2.192480 -6.469440 -0.000000 -170.635000 5.132450 -4.063860 39.081100 -0.000007 -0.000012 0.429349 -0.756426 29.580500 40.985400 -0.000006 -0.000013 0.309786 6.848280 -77.260400 11.754300 -0.000000 0.000003 0.000759 0.153678 -10.344300 -2.192510 6.469440 -0.000001 -169.029000 5.753760 -176.535000 -39.081100 -0.002282 -0.040193 0.122338 -0.419549 15.836600 -40.985400 0.000008 0.000006 5.302690 1.383760 -70.872700 -11.754300 -0.000006 -0.000006 -0.008273 0.257913 -6.098380
